<svg width="75" height="72" viewBox="0 0 75 72" fill="none" xmlns="http://www.w3.org/2000/svg">
<g id="g3256">
<path id="path3250" d="M3.57861 3.07568H71.2709V68.9219H3.57861V3.07568Z" fill="#F71364"/>
<path id="path3252" d="M0.501465 0V72H74.3476V0H0.501465ZM3.57839 3.07692H71.2707V68.9231H3.57839V3.07692Z" fill="#FF3980"/>
<path id="path3254" d="M26.1315 40.7693L23.7007 50.0001C23.6392 50.2463 23.5469 50.3078 23.2392 50.3078H18.7161C18.4084 50.3078 18.3469 50.2155 18.4084 49.8463L27.1469 19.2617C27.3007 18.7078 27.393 18.2155 27.4546 16.7078C27.4546 16.4924 27.5469 16.4001 27.7007 16.4001H34.1622C34.3776 16.4001 34.4699 16.4617 34.5315 16.7078L44.3161 49.9078C44.3776 50.154 44.3161 50.3078 44.0699 50.3078H38.9622C38.7161 50.3078 38.5622 50.2463 38.5007 50.0309L35.9469 40.7693H26.1315ZM34.6853 35.7847C33.8238 32.3693 31.793 24.9232 31.0238 21.3232H30.9622C30.3161 24.9232 28.6853 31.0155 27.393 35.7847H34.6853ZM48.5315 18.677C48.5315 16.7078 49.9161 15.5386 51.6699 15.5386C53.5468 15.5386 54.8084 16.8001 54.8084 18.677C54.8084 20.7078 53.4853 21.8155 51.6084 21.8155C49.8238 21.8155 48.5315 20.7078 48.5315 18.677ZM48.9007 25.6617C48.9007 25.4155 48.993 25.2924 49.2699 25.2924H54.1007C54.3468 25.2924 54.4699 25.3847 54.4699 25.6617V49.9386C54.4699 50.1847 54.4084 50.3078 54.1007 50.3078H49.3315C49.0238 50.3078 48.9315 50.154 48.9315 49.9078V25.6617H48.9007Z" fill="black"/>
</g>
</svg>
