<svg width="89" height="58" viewBox="0 0 89 58" fill="none" xmlns="http://www.w3.org/2000/svg">
<g id="AWS">
<path id="Vector" d="M74.5699 25.6664C73.3891 25.6552 72.2118 25.5271 71.053 25.2839C69.9387 25.0327 68.8502 24.6643 67.8031 24.1841L67.0463 23.9929H66.5121C66.0669 23.9929 65.8443 24.3276 65.8443 24.997V26.5749C65.7813 26.874 65.7813 27.1844 65.8443 27.4834C66.0679 27.8767 66.3926 28.1922 66.7792 28.392C67.85 28.9674 68.988 29.3855 70.1626 29.6352C71.6211 30.0097 73.1149 30.2022 74.6144 30.209C76.1229 30.2576 77.6282 30.0312 79.0662 29.5395C80.2543 29.2047 81.3622 28.6016 82.316 27.7703C83.2176 27.022 83.961 26.0767 84.4974 24.997C85.0079 23.8308 85.2666 22.5559 85.2542 21.2674C85.2703 19.6687 84.8015 18.1077 83.9187 16.8205C82.7316 15.3718 81.1888 14.3113 79.4669 13.7603L75.2377 12.3258C74.056 11.9973 72.9498 11.4114 71.9878 10.6044C71.7058 10.3138 71.4815 9.96484 71.3285 9.5786C71.1755 9.19235 71.0969 8.77681 71.0975 8.35705C71.0656 7.78967 71.1771 7.2236 71.42 6.71861C71.6629 6.21363 72.0283 5.78849 72.4775 5.48809C73.7093 4.84625 75.0725 4.55014 76.4397 4.6274C78.3876 4.57661 80.3208 5.00171 82.0935 5.87062C82.4558 6.06905 82.8474 6.19848 83.2509 6.25314C83.6961 6.25314 83.9187 5.87062 83.9187 5.20119V3.47982C83.932 3.10806 83.8388 2.74087 83.6516 2.42786C83.4138 2.10239 83.1091 1.84052 82.7612 1.66281C82.3643 1.42805 81.9468 1.23585 81.5147 1.08902C80.9607 0.87898 80.3959 0.703364 79.823 0.563039L77.8642 0.0848791C77.1381 0.0285283 76.409 0.0285283 75.6828 0.0848791C74.4337 0.0617479 73.1883 0.239027 71.9878 0.610856C70.864 0.963211 69.8083 1.53011 68.8716 2.28442C68.0025 2.96554 67.2874 3.84804 66.7792 4.86648C66.2332 5.95226 65.9571 7.171 65.9779 8.40486C65.9512 10.1311 66.469 11.8163 67.447 13.1865C68.6693 14.768 70.3179 15.9039 72.1659 16.438L76.6177 17.8724C77.7192 18.1489 78.7424 18.7065 79.6004 19.4982C80.1334 20.1042 80.4215 20.9121 80.4018 21.7455C80.4114 22.3504 80.2724 22.9473 79.9989 23.4762C79.7253 24.005 79.3269 24.4471 78.8436 24.7579C77.5222 25.4719 76.0448 25.7859 74.5699 25.6664ZM48.7049 2.47568C48.6362 2.00699 48.434 1.57266 48.1261 1.23246C47.7931 0.968713 47.3799 0.849225 46.9687 0.897752H44.5202C44.1109 0.873353 43.7052 0.990676 43.3627 1.23246C43.0381 1.55967 42.8329 2.00049 42.7839 2.47568L38.3321 23.5147L33.2571 2.47568C33.1761 2.00123 32.958 1.56623 32.6338 1.23246C32.6338 1.23246 32.0551 0.897752 31.4763 0.897752H28.5827C28.093 0.897752 27.8704 1.18465 27.8704 1.71062C27.9136 2.15045 28.0032 2.58358 28.1375 3.00166L35.0823 27.5791C35.1726 28.0163 35.3554 28.4254 35.6165 28.7745C35.9665 28.9936 36.37 29.0936 36.774 29.0614H39.3115C39.7295 29.0917 40.1468 28.9921 40.5135 28.7745C40.7942 28.4021 40.9784 27.9567 41.0477 27.4834L45.4996 7.0182L49.9514 27.5313C49.9884 28.0001 50.1774 28.4401 50.4856 28.7745C50.8359 29.0373 51.2625 29.1561 51.6876 29.1092H54.2251C54.6201 29.1301 55.0106 29.0126 55.3381 28.7745C55.6729 28.4496 55.8931 28.0104 55.9613 27.5313L63.1287 2.95384C63.1548 2.69959 63.1548 2.44303 63.1287 2.18878C63.146 2.01395 63.146 1.83764 63.1287 1.66281C63.1437 1.55234 63.1344 1.43965 63.1016 1.33371C63.0689 1.22777 63.0136 1.1315 62.9401 1.05256C62.8666 0.973631 62.777 0.914212 62.6783 0.879035C62.5797 0.843857 62.4748 0.833892 62.3719 0.849934H59.6118C59.2032 0.832004 58.7993 0.948806 58.4543 1.18465C58.1802 1.5494 57.9828 1.9735 57.8756 2.42786L53.4238 23.9929L48.7049 2.47568ZM16.7854 12.6605C15.7372 12.5128 14.6817 12.4329 13.6246 12.4214C11.0046 12.2735 8.42437 13.1577 6.36812 14.9078C5.49247 15.7133 4.79747 16.7208 4.33496 17.8551C3.87246 18.9894 3.65439 20.2212 3.69703 21.4586C3.64525 22.5856 3.81246 23.7117 4.18802 24.7654C4.56358 25.8192 5.13926 26.7774 5.87842 27.5791C6.67287 28.3666 7.60601 28.9753 8.62288 29.3695C9.63974 29.7637 10.7198 29.9353 11.7993 29.8742C13.4986 29.9267 15.1861 29.557 16.7305 28.794C18.2749 28.031 19.6343 26.8952 20.703 25.4752C20.9632 26.1162 21.2606 26.739 21.5933 27.34C21.9102 27.8653 22.2676 28.3612 22.6618 28.8223C22.7694 28.9394 22.8977 29.0324 23.039 29.0958C23.1804 29.1593 23.3321 29.192 23.4853 29.192C23.6386 29.192 23.7903 29.1593 23.9316 29.0958C24.073 29.0324 24.2013 28.9394 24.3089 28.8223L26.1787 27.4834C26.3348 27.3797 26.4676 27.2401 26.5676 27.0748C26.6677 26.9095 26.7325 26.7225 26.7574 26.5271C26.8294 26.278 26.8294 26.0112 26.7574 25.7621C26.3967 25.0377 26.0843 24.2867 25.8225 23.5147C25.584 22.5809 25.479 21.6135 25.5109 20.6458V10.5566C25.6173 9.1396 25.4552 7.71416 25.0343 6.36636C24.6135 5.01855 23.9427 3.77635 23.0624 2.71476C21.931 1.693 20.616 0.932233 19.1991 0.479797C17.7823 0.0273604 16.2939 -0.107067 14.8266 0.0848791C13.3238 0.084279 11.8274 0.293228 10.3748 0.706488C9.08127 1.02947 7.82656 1.51077 6.63523 2.14097C6.32101 2.29007 6.0458 2.51998 5.8339 2.81039C5.72513 3.16767 5.72513 3.55288 5.8339 3.91016V5.48809C5.8339 6.15751 5.8339 6.44441 6.45716 6.44441C6.61852 6.48192 6.78549 6.48192 6.94686 6.44441L7.97077 6.06188C8.87506 5.58513 9.81283 5.18544 10.7754 4.86648C11.8237 4.58427 12.9 4.43976 13.9807 4.43613C15.7016 4.2425 17.4254 4.77392 18.7887 5.91843C19.8488 7.34867 20.3443 9.16851 20.1687 10.9869V13.3299L16.7854 12.6605ZM20.2578 16.9639V18.255C20.2612 19.1897 20.1566 20.1213 19.9461 21.0283C19.7583 21.7898 19.4077 22.4938 18.9222 23.0844C18.18 24.0216 17.2085 24.7172 16.1176 25.0926C15.1445 25.4603 14.1219 25.6542 13.0904 25.6664C12.5257 25.7116 11.9583 25.6331 11.4227 25.4359C10.887 25.2386 10.3942 24.9266 9.97409 24.5189C9.58416 24.0652 9.2875 23.5285 9.10342 22.9435C8.91934 22.3586 8.85196 21.7386 8.90565 21.1239C8.86887 20.437 8.98262 19.7504 9.23777 19.1192C9.49291 18.4881 9.88234 17.93 10.3748 17.4899C11.6722 16.513 13.2477 16.0561 14.8266 16.1989H17.5867C18.4894 16.4013 19.3811 16.6567 20.2578 16.9639ZM79.0662 43.1193C68.4237 47.9287 57.0011 50.4312 45.455 50.483C30.0008 50.4861 14.8119 46.1686 1.38209 37.9552C0.313656 37.2379 -0.532189 38.4333 0.402692 39.3418C12.4907 51.079 28.2251 57.5422 44.5202 57.4641C57.3705 57.4981 69.9337 53.3833 80.5798 45.6535C82.0935 44.1712 80.7134 42.2108 79.0662 43.1193Z" fill="#F71364"/>
<path id="Vector_2" d="M72.9225 38.623C72.0767 39.2924 72.2102 40.2009 73.1451 40.0575C76.3059 39.6271 83.2952 38.7664 84.5417 40.4878C85.7882 42.2092 83.1617 49.2381 81.9597 52.394C81.6035 53.3503 82.4049 53.7328 83.2062 53.0156C85.2333 51.0112 86.7871 48.5174 87.7392 45.7404C88.6914 42.9633 89.0145 39.9828 88.6819 37.045C86.1238 35.963 83.3646 35.5421 80.6271 35.8162C77.8896 36.0903 75.2504 37.0517 72.9225 38.623Z" fill="#F71364"/>
</g>
</svg>
