<svg width="106" height="37" viewBox="0 0 106 37" fill="none" xmlns="http://www.w3.org/2000/svg">
<g id="Group">
<path id="Vector" fill-rule="evenodd" clip-rule="evenodd" d="M5.78607 17.9824C5.76778 21.4693 8.32454 23.5479 12.4046 22.6029V13.362C8.27295 12.1038 5.80338 14.6494 5.78607 17.9824ZM12.5295 4.25355e-05H18.149V26.5989C12.7625 27.4795 7.60357 28.0381 3.91298 25.9745C-0.839047 23.3176 -1.22106 14.8746 2.53921 11.1141C4.44573 9.20779 8.28392 7.86562 12.4047 8.74147V0.374738C12.3939 0.197407 12.3839 0.0209275 12.5295 4.25355e-05ZM27.265 5.86922H21.6455V0H27.265V5.86922ZM94.6987 22.8526C100.825 25.2332 101.503 11.8874 95.3232 13.1121C91.4856 13.8727 91.6089 21.6519 94.6987 22.8526ZM94.9485 8.49166C99.6267 7.99144 103.156 10.0559 104.564 13.237C106.967 18.6647 104.432 24.8927 100.568 26.7238C98.5655 27.6729 96.4685 27.7633 94.5739 27.5979C88.718 27.0872 85.0249 21.1195 87.0813 14.4857C87.403 13.4474 87.7646 12.8123 87.9555 12.4877C89.2284 10.3235 91.3773 8.87354 94.9485 8.49166ZM35.0074 20.7297C33.4532 23.3418 37.3583 23.9676 39.8775 23.2273V19.356C37.9419 19.6263 35.7387 19.5005 35.0074 20.7297ZM44.8726 26.8487C40.2307 27.1157 33.1762 28.697 30.6367 25.6C29.1447 23.7803 29.3052 20.3095 30.6367 18.6067C32.3574 16.4066 36.1135 15.9268 39.5029 15.6098C39.8106 14.8521 39.6031 13.6194 39.2532 13.112C36.1528 12.3223 33.0725 13.546 30.8866 14.4856V10.1151C34.1881 8.59817 41.8354 7.00096 44.1235 10.4897C45.3251 12.322 44.8726 15.5176 44.8726 18.3569V26.8487ZM64.6033 27.0986H58.9839V19.8556C58.9839 17.4708 59.3697 14.4469 58.1096 13.4868C57.1227 12.7344 54.7816 13.1119 53.3644 13.4868V27.0986H47.7449V9.7405C53.4894 8.24836 63.8586 6.64847 64.6034 13.8614C64.9707 17.4176 64.3312 22.753 64.6033 27.0986ZM72.9701 21.1043C73.9157 22.6343 76.4764 23.208 78.5895 22.2282C78.4734 19.3056 78.4329 16.3075 78.4646 13.237C73.6081 11.9539 70.7139 17.4548 72.9701 21.1043ZM87.0813 9.24105C86.581 10.7389 85.8491 12.0048 85.2081 13.3621C84.629 13.4918 84.1271 13.1319 83.8344 13.3621C83.7062 19.4493 85.1308 27.7015 82.7105 32.0935C81.2532 34.7379 78.5703 36.4344 74.4686 36.714C71.4806 36.9178 69.1615 36.4296 66.9759 35.5902V30.3453C69.5394 31.842 76.0169 33.0622 77.8403 29.9706C78.3768 29.061 78.3428 28.1208 78.5895 26.7238C77.4155 26.7855 76.2758 27.3291 74.8433 27.3482C68.9538 27.4264 65.3103 22.737 66.7262 16.234C67.2738 13.7185 68.7477 11.6932 70.7224 10.4897C74.8236 7.99008 81.1278 8.17992 87.0813 9.24105Z" fill="#F71364"/>
<path id="Vector_2" fill-rule="evenodd" clip-rule="evenodd" d="M27.265 8.84131C27.2586 12.9793 27.2596 15.9528 27.2592 20.98C27.0204 25.9204 27.076 29.8545 25.2671 32.2184C24.9103 32.6846 24.1527 33.3646 23.5187 33.8419C22.9864 34.2427 21.9718 35.0554 21.3958 35.0908C20.8152 35.1264 19.3235 34.2847 18.6484 33.9668C17.762 33.5492 16.9425 32.9948 16.0261 32.7181C18.1637 31.3935 20.1927 30.4004 21.0211 27.7229C21.7415 25.3944 21.6456 22.0201 21.6456 18.7317C21.6456 15.4847 21.66 11.7096 21.66 8.84276L27.265 8.84131Z" fill="#F71364"/>
</g>
</svg>
