<svg width="66" height="98" viewBox="0 0 66 98" fill="none" xmlns="http://www.w3.org/2000/svg">
<g id="Figma">
<path id="Vector" d="M49.4096 32.6455C53.6539 32.5182 57.6817 30.7426 60.6388 27.6954C63.5959 24.6482 65.2499 20.569 65.2499 16.3228C65.2499 12.0766 63.5959 7.99736 60.6388 4.95015C57.6817 1.90293 53.6539 0.127378 49.4096 0H16.7592C12.5149 0.127378 8.48714 1.90293 5.53 4.95015C2.57287 7.99736 0.918938 12.0766 0.918938 16.3228C0.918938 20.569 2.57287 24.6482 5.53 27.6954C8.48714 30.7426 12.5149 32.5182 16.7592 32.6455C12.4778 32.7197 8.39684 34.4726 5.39532 37.5265C2.39381 40.5805 0.711914 44.6912 0.711914 48.9732C0.711914 53.2552 2.39381 57.366 5.39532 60.4199C8.39684 63.4739 12.4778 65.2267 16.7592 65.3009C12.4987 65.4053 8.44785 67.1711 5.47148 70.2213C2.4951 73.2715 0.82906 77.3644 0.82906 81.6261C0.82906 85.8879 2.4951 89.9808 5.47148 93.0309C8.44785 96.0811 12.4987 97.8469 16.7592 97.9513C21.089 97.9487 25.2406 96.2272 28.3017 93.1652C31.3629 90.1031 33.0831 85.951 33.0844 81.6212V32.6455H49.4096Z" fill="#F71364"/>
<path id="Vector_2" d="M49.4102 65.2964C58.4264 65.2964 65.7354 57.9874 65.7354 48.9712C65.7354 39.955 58.4264 32.646 49.4102 32.646C40.394 32.646 33.085 39.955 33.085 48.9712C33.085 57.9874 40.394 65.2964 49.4102 65.2964Z" fill="#F71364"/>
</g>
</svg>
