<svg width="184" height="184" viewBox="0 0 184 184" fill="none" xmlns="http://www.w3.org/2000/svg">
<g id="Group">
<path id="Vector" d="M83.627 0.324081C81.2925 0.611664 79.82 1.33063 78.2756 2.87639C76.5158 4.6019 76.1926 5.57249 75.1869 11.5039C74.6841 14.5595 74.1454 17.1478 74.0017 17.2556C73.858 17.3634 72.7088 17.7229 71.4158 18.0824C66.9264 19.2687 62.5806 20.9942 57.0856 23.7622L51.5187 26.5302L47.2088 23.4387C44.8025 21.7491 42.3603 20.1314 41.7138 19.8439C39.9898 19.1249 36.7215 19.2327 34.9976 20.0955C31.7293 21.6772 21.6012 31.8145 20.0568 35.0499C19.2667 36.6675 19.123 39.4715 19.7336 41.3408C19.985 42.0238 21.5293 44.5042 23.1814 46.8408C24.8695 49.2134 26.3061 51.3343 26.4138 51.55C26.4856 51.8016 26.0547 52.8082 25.4441 53.8147C23.5047 57.0141 20.7033 63.269 19.123 68.158C18.261 70.7822 17.5427 73.1907 17.5427 73.4423C17.5427 74.2332 17.3631 74.2691 12.2991 75.0959C5.69064 76.1744 4.57726 76.6058 2.70966 78.6907C0.626566 80.9914 0.267412 82.5012 0.0519193 89.6549C-0.163573 96.0177 0.303327 101.374 1.23713 103.207C1.99135 104.717 3.78712 106.622 5.04416 107.305C5.58289 107.593 8.49204 108.24 11.473 108.743C14.4899 109.211 17.0758 109.714 17.2554 109.822C17.3991 109.93 17.5427 110.289 17.5427 110.613C17.5786 112.877 22.8223 125.89 25.4441 130.132C26.0187 131.103 26.5216 132.038 26.5216 132.217C26.5216 132.361 25.1927 134.338 23.5765 136.603C19.8413 141.815 19.2307 143.253 19.4103 145.878C19.4821 146.992 19.8413 148.466 20.1645 149.149C21.5652 152.061 32.1244 162.593 34.9617 163.923C36.6856 164.714 40.0257 164.822 41.7497 164.103C42.3962 163.852 44.8743 162.234 47.2447 160.508L51.5905 157.417L56.0081 159.718C61.2158 162.45 66.4236 164.571 70.6975 165.721C72.3855 166.152 73.858 166.62 74.0017 166.727C74.1454 166.835 74.6841 169.424 75.1869 172.479C76.1926 178.411 76.5158 179.381 78.2756 181.107C79.9996 182.868 81.2925 183.335 85.2791 183.767C89.3376 184.198 91.0256 183.911 92.7495 182.545C94.9045 180.855 94.9404 180.639 95.0481 167.303C95.12 160.58 95.084 154.253 94.9404 153.211C94.5094 149.76 92.2467 147.531 88.727 147.208C78.3834 146.129 71.3081 143.936 63.8017 139.479C48.2504 130.204 38.3018 114.1 36.9729 96.0536C35.0694 70.5665 50.944 47.0565 75.2947 39.3636C79.0299 38.2133 83.663 37.3146 88.727 36.7754C91.8876 36.4518 94.1143 34.6185 94.7608 31.7426C95.1918 29.9812 95.1918 7.15421 94.7967 5.03328C94.1502 1.76201 91.6721 -0.0354004 87.9369 0.000549316C86.6439 0.036499 84.7045 0.180298 83.627 0.324081ZM88.6552 18.4419V30.772L85.5306 30.9877C81.8672 31.2753 76.0489 32.5335 71.9545 33.9355C56.3673 39.2917 43.33 51.0467 36.3983 65.9292C24.8335 90.6974 30.9392 119.959 51.375 138.005C60.8208 146.381 73.858 152.061 85.5665 152.959L88.6552 153.211V165.577V177.979L86.0693 177.728C82.1186 177.332 82.1186 177.332 80.8975 169.531C80.1073 164.499 79.7123 162.845 79.1376 162.198C78.5989 161.587 77.3418 161.084 74.2531 160.293C67.7165 158.675 61.6109 156.087 55.3975 152.348C53.7813 151.378 52.0574 150.587 51.5905 150.587C50.6208 150.587 49.9743 150.982 43.6891 155.476C40.5645 157.74 39.2356 158.495 38.3736 158.495C37.368 158.495 36.4701 157.74 31.3342 152.6C26.342 147.639 25.4441 146.561 25.4441 145.662C25.4441 144.871 26.4856 143.146 29.3948 139.047C32.268 135.057 33.3455 133.224 33.3455 132.469C33.3455 131.822 32.5554 130.096 31.3701 128.083C27.8145 122.152 25.5159 116.544 23.6124 109.462C23.0378 107.233 22.2835 105.22 21.9244 104.825C21.3857 104.322 19.554 103.854 14.4899 103.028C6.15754 101.626 6.51669 101.949 6.19345 95.7661C6.04979 93.3935 6.08571 89.6908 6.22937 87.534C6.58852 82.1418 6.33711 82.3215 14.4899 80.9914C19.4103 80.2006 21.1343 79.7692 21.7807 79.23C22.3554 78.7267 22.8941 77.3607 23.6124 74.5567C25.48 67.475 27.8145 61.8311 31.3701 55.8997C32.4835 53.9945 33.3455 52.1252 33.3455 51.5859C33.3455 50.867 32.1244 48.8539 29.3948 45.0075C27.1321 41.8081 25.4441 39.076 25.4441 38.6087C25.4441 37.4224 27.5631 34.9061 32.7708 29.8734C36.542 26.2785 37.5476 25.4877 38.4455 25.4877C39.1997 25.4877 40.6722 26.3145 43.6891 28.5073C49.9743 33.0008 50.6208 33.3963 51.5546 33.3963C52.0215 33.3963 53.9609 32.4976 55.8285 31.3832C61.9341 27.7884 70.4461 24.3374 75.7975 23.2949C79.4968 22.5759 79.7123 22.2164 80.8975 14.4517C82.1545 6.29146 82.0827 6.39931 87.5059 6.14766L88.6552 6.07578V18.4419Z" fill="#BABABA"/>
<path id="Vector_2" d="M117.029 6.39917C111.498 8.08873 108.732 14.3437 111.318 19.4124C112.036 20.8503 115.053 23.6902 115.807 23.6902C116.238 23.6902 116.31 25.5595 116.31 33.9353V44.2165L115.412 45.0792L114.55 45.9779H104.35H94.1145L93.5758 45.1152C92.2469 43.1021 89.23 42.6707 83.4477 43.6773C63.1555 47.1642 47.1372 63.3049 43.5456 83.8312C42.7914 88.145 42.7914 95.8378 43.5456 100.152C47.1372 120.678 63.1555 136.819 83.4477 140.306C89.23 141.312 92.2469 140.881 93.5758 138.868L94.1145 138.005H103.991C114.263 138.005 115.52 138.185 116.095 139.623C116.202 139.946 116.31 144.727 116.31 150.263C116.31 158.459 116.238 160.293 115.807 160.293C115.053 160.293 112.036 163.133 111.318 164.57C108.409 170.25 112.216 177.152 118.609 177.799C122.344 178.195 125.72 176.325 127.516 172.91C129.886 168.381 128.09 162.845 123.457 160.436L122.416 159.897V149.4V138.868L121.482 136.998C120.979 135.956 119.974 134.662 119.255 134.051C116.849 132.073 115.736 131.894 104.925 131.894H95.1202V128.838V125.783H112.395H129.671L130.712 124.74C131.826 123.626 132.005 122.619 131.323 121.361C130.425 119.671 130.712 119.707 112.467 119.671H95.1202V114.998V110.325H119.686C135.094 110.325 144.612 110.469 145.222 110.684C146.946 111.331 147.197 112.733 147.197 121.397V129.305L146.12 129.737C144.647 130.348 141.99 133.296 141.451 134.913C141.2 135.668 141.092 137.322 141.164 138.724C141.343 141.923 142.672 144.188 145.33 145.77C148.526 147.711 152.226 147.675 155.207 145.698C160.558 142.175 160.558 133.835 155.171 130.42L153.483 129.341L153.303 120.282C153.124 111.691 153.088 111.116 152.297 109.534C151.831 108.563 150.789 107.233 149.963 106.55C147.197 104.178 147.628 104.214 120.01 104.214H95.1202V99.7202V95.2267H130.64H166.161L166.592 96.3051C167.166 97.6712 169.393 99.7202 171.153 100.439C171.907 100.763 173.523 101.05 174.745 101.05C177.51 101.05 180.204 99.7202 181.928 97.4555C185.519 92.7103 183.652 85.8802 178.121 83.5077C176.397 82.7527 172.877 82.7527 171.153 83.5077C169.393 84.2985 167.166 86.3116 166.592 87.6776L166.161 88.7561H130.64H95.1202V84.2626V79.7691H120.01C147.628 79.7691 147.197 79.805 149.963 77.4324C150.789 76.7494 151.831 75.4193 152.297 74.4488C153.088 72.867 153.124 72.2919 153.303 63.7003L153.483 54.6774L155.243 53.4551C159.05 50.9028 160.343 45.8701 158.259 41.8439C156.535 38.5367 153.806 36.8831 150.071 36.8471C146.264 36.8471 143.139 38.9321 141.631 42.491C140.876 44.2884 140.948 47.9551 141.774 49.7525C142.457 51.2982 145.186 54.0303 146.443 54.4257C147.197 54.6414 147.197 54.7852 147.197 62.55C147.197 71.2494 146.946 72.6514 145.222 73.2984C144.612 73.5141 135.094 73.6579 119.686 73.6579H95.1202V68.9847V64.3114H112.467C130.712 64.2755 130.425 64.3114 131.323 62.6219C132.005 61.3637 131.826 60.3571 130.712 59.2427L129.671 58.2003H112.395H95.1202V55.1447V52.0891H104.925C110.528 52.0891 115.269 51.9094 116.023 51.7296C118.07 51.1544 120.297 49.2492 121.41 47.0923L122.416 45.1871V34.6184V24.0496L123.781 23.3666C130.676 19.8078 129.85 9.13123 122.452 6.61485C120.764 6.03969 118.537 5.96779 117.029 6.39917ZM120.943 12.726C123.637 14.092 122.488 18.298 119.399 18.298C117.711 18.298 116.131 16.5006 116.454 14.9548C116.921 12.5822 118.86 11.6476 120.943 12.726ZM151.866 43.4616C152.226 43.6413 152.728 44.3603 152.944 45.0433C153.95 48.0989 150.394 50.2557 148.024 48.027C146.946 47.0564 146.91 45.0792 147.988 43.9289C148.814 43.0302 150.645 42.8145 151.866 43.4616ZM88.6554 91.9914C88.6554 134.266 88.6554 134.77 87.9371 134.77C86.4286 134.77 80.0716 133.332 77.5216 132.433C65.5259 128.083 55.7569 118.341 51.5189 106.442C48.3224 97.4914 48.3224 86.4554 51.5189 77.5403C55.8287 65.6055 65.6336 55.7917 77.5216 51.5858C80.323 50.5793 85.9617 49.2851 87.6857 49.2492L88.6554 49.2133V91.9914ZM176.828 90.0142C177.402 90.5535 177.726 91.3084 177.726 91.9914C177.726 94.6875 174.242 95.9457 172.446 93.9326C171.404 92.8182 171.404 91.3084 172.374 90.0502C173.38 88.7561 175.571 88.7201 176.828 90.0142ZM151.866 135.488C152.226 135.668 152.728 136.387 152.944 137.07C153.95 140.126 150.394 142.283 148.024 140.054C146.946 139.083 146.91 137.106 147.988 135.956C148.814 135.057 150.645 134.841 151.866 135.488ZM121.518 166.584C122.416 167.446 122.667 168.92 122.2 170.178C121.913 170.861 120.225 171.796 119.219 171.796C118.142 171.796 116.705 170.322 116.454 169.028C116.274 168.057 116.418 167.698 117.316 166.763C118.717 165.397 120.297 165.325 121.518 166.584Z" fill="#BABABA"/>
</g>
</svg>
