<svg width="83" height="82" viewBox="0 0 83 82" fill="none" xmlns="http://www.w3.org/2000/svg">
<g id="Git">
<path id="Vector" d="M80.8106 37.1617L45.1767 1.53596C44.1885 0.552262 42.8509 0 41.4566 0C40.0622 0 38.7247 0.552262 37.7365 1.53596L30.3534 8.92721L39.7363 18.3142C40.8433 17.9401 42.0331 17.8838 43.1705 18.1516C44.308 18.4193 45.3476 19.0004 46.1715 19.8291C46.9955 20.6577 47.5707 21.7006 47.832 22.8395C48.0934 23.9785 48.0303 25.1678 47.65 26.2728L56.686 35.321C58.0238 34.8516 59.4815 34.8514 60.8194 35.3205C62.1574 35.7896 63.2958 36.7 64.0476 37.902C64.7994 39.104 65.1198 40.5261 64.9561 41.9344C64.7923 43.3427 64.1542 44.6533 63.1467 45.6508C60.702 48.0996 56.7554 48.0996 54.3066 45.6508C53.4368 44.78 52.8425 43.6725 52.5979 42.4662C52.3533 41.26 52.4692 40.0085 52.9312 38.8677L44.4665 30.4479V52.638C45.0624 52.9278 45.6338 53.3277 46.1276 53.8216C47.2945 54.9967 47.9494 56.5856 47.9494 58.2416C47.9494 59.8977 47.2945 61.4866 46.1276 62.6617C45.5454 63.2449 44.8539 63.7076 44.0926 64.0232C43.3314 64.3389 42.5154 64.5014 41.6912 64.5014C40.8671 64.5014 40.0511 64.3389 39.2899 64.0232C38.5287 63.7076 37.8371 63.2449 37.2549 62.6617C36.6739 62.0824 36.2129 61.3941 35.8984 60.6363C35.5839 59.8785 35.422 59.0662 35.422 58.2457C35.422 57.4253 35.5839 56.6129 35.8984 55.8551C36.2129 55.0973 36.6739 54.4091 37.2549 53.8297C37.8752 53.2175 38.5691 52.7523 39.3119 52.4462V30.0398C38.5488 29.7274 37.8551 29.2668 37.2711 28.6847C36.6871 28.1027 36.2242 27.4106 35.9092 26.6486C35.5942 25.8865 35.4334 25.0696 35.436 24.245C35.4386 23.4205 35.6046 22.6046 35.9244 21.8445L26.7006 12.5759L2.26584 36.9903C0.225188 39.0472 0.225188 42.3776 2.26584 44.4346L37.8997 80.0603C38.3873 80.5491 38.9665 80.9369 39.6041 81.2015C40.2418 81.4661 40.9254 81.6023 41.6157 81.6023C42.3061 81.6023 42.9897 81.4661 43.6274 81.2015C44.265 80.9369 44.8442 80.5491 45.3318 80.0603L80.7983 44.5978C81.2895 44.1116 81.6797 43.5329 81.9463 42.8953C82.2129 42.2576 82.3508 41.5735 82.3519 40.8823C82.3531 40.1911 82.2174 39.5066 81.9529 38.868C81.6884 38.2295 81.3002 37.6496 80.8106 37.1617Z" fill="#F71364"/>
</g>
</svg>
