<svg width="180" height="192" viewBox="0 0 180 192" fill="none" xmlns="http://www.w3.org/2000/svg">
<g id="Group">
<path id="Vector" d="M80.7592 0.406479C73.1818 1.125 64.7669 3.2007 57.1097 6.19449C26.0025 18.3294 4.02799 47.0698 0.438692 80.281C0.159524 82.6761 0 95.729 0 114.051C0 139.558 0.0797622 144.229 0.598216 146.224C2.23334 152.531 6.93931 158.279 12.6024 160.994C14.3173 161.792 16.0322 162.63 16.3512 162.79C16.6703 162.99 17.0691 163.908 17.2286 164.826C19.0632 175.604 27.6775 185.583 38.5251 189.535C43.8293 191.491 46.1025 191.61 70.0711 191.491C91.567 191.371 92.0854 191.371 93.1622 190.533C94.917 189.255 95.7944 187.818 95.9938 185.902C96.2729 183.587 95.3956 181.591 93.4813 180.154L92.0057 178.997L68.8348 178.797C51.2472 178.597 45.265 178.438 44.0686 178.039C37.4882 175.883 32.3834 170.893 30.2697 164.706L29.5918 162.67L32.7424 161.153C38.4852 158.359 42.7924 153.29 44.7865 147.063C45.6638 144.308 45.6638 143.869 45.6638 122.514C45.6638 100.838 45.6638 100.759 44.7466 97.7648C42.5132 90.6595 37.6876 85.4304 30.868 82.716C28.3953 81.718 27.5977 81.6382 22.9316 81.5983C18.5447 81.5983 17.3882 81.718 15.4739 82.4765L13.1608 83.3147V82.0374C13.1608 81.3189 13.5197 78.7642 13.9584 76.3691C17.7072 55.4924 29.7912 37.1703 47.6579 25.3947C75.2157 7.19243 111.747 8.86896 137.55 29.4663C146.762 36.8111 155.058 47.3892 159.764 57.6878C162.874 64.5137 165.546 74.1737 166.145 80.5604C166.424 83.3946 166.384 83.5143 165.666 83.195C160.282 80.9596 154.459 80.7201 149.275 82.5563C143.412 84.5921 138.826 88.5838 136.234 93.9727C133.801 98.9623 133.801 99.0422 133.801 122.713C133.801 146.544 133.761 146.025 136.473 151.414C137.949 154.368 142.894 159.397 145.845 160.954C148.557 162.391 153.462 163.628 156.493 163.628C167.102 163.588 176.514 156.124 178.867 145.865C179.425 143.51 179.505 139.159 179.345 111.377C179.226 83.3547 179.146 79.1633 178.548 75.8103C174.958 56.171 166.743 40.0843 153.343 26.5124C134.519 7.43193 107.838 -2.14822 80.7592 0.406479Z" fill="#BABABA"/>
</g>
</svg>
