<svg width="30" height="30" viewBox="0 0 51 49" fill="none" xmlns="http://www.w3.org/2000/svg">
<g clip-path="url(#clip0_196_148)">
<path d="M17.0872 24.7098C17.0872 20.2371 20.8209 16.6103 25.4279 16.6103C30.0348 16.6103 33.7705 20.2371 33.7705 24.7098C33.7705 29.1826 30.0348 32.8094 25.4279 32.8094C20.8209 32.8094 17.0872 29.1826 17.0872 24.7098ZM12.5773 24.7098C12.5773 31.6005 18.3304 37.186 25.4279 37.186C32.5253 37.186 38.2785 31.6005 38.2785 24.7098C38.2785 17.8192 32.5253 12.2337 25.4279 12.2337C18.3304 12.2337 12.5773 17.8192 12.5773 24.7098ZM35.784 11.7391C35.784 13.3485 37.1282 14.6555 38.7879 14.6555C40.4455 14.6555 41.7918 13.3485 41.7918 11.7391C41.7918 10.1298 40.4475 8.82471 38.7879 8.82471C37.1282 8.82471 35.784 10.1298 35.784 11.7391ZM15.3164 44.4868C12.8765 44.3788 11.5504 43.9844 10.669 43.6507C9.50057 43.2091 8.66772 42.6832 7.79039 41.8334C6.91509 40.9836 6.37131 40.175 5.91849 39.0406C5.57484 38.1849 5.16852 36.8975 5.05734 34.5286C4.93605 31.9675 4.91179 31.1981 4.91179 24.7098C4.91179 18.2216 4.93807 17.4542 5.05734 14.8911C5.16852 12.5222 5.57686 11.2367 5.91849 10.3791C6.37333 9.2447 6.91509 8.43612 7.79039 7.58436C8.6657 6.73456 9.49855 6.20663 10.669 5.76701C11.5504 5.43337 12.8765 5.03889 15.3164 4.93095C17.9544 4.81319 18.7469 4.78964 25.4279 4.78964C32.1109 4.78964 32.9013 4.81516 35.5414 4.93095C37.9813 5.03889 39.3054 5.43533 40.1888 5.76701C41.3572 6.20663 42.19 6.73456 43.0674 7.58436C43.9427 8.43416 44.4844 9.2447 44.9393 10.3791C45.2829 11.2348 45.6892 12.5222 45.8004 14.8911C45.9217 17.4542 45.946 18.2216 45.946 24.7098C45.946 31.1962 45.9217 31.9655 45.8004 34.5286C45.6892 36.8975 45.2809 38.1849 44.9393 39.0406C44.4844 40.175 43.9427 40.9836 43.0674 41.8334C42.1921 42.6832 41.3572 43.2091 40.1888 43.6507C39.3074 43.9844 37.9813 44.3788 35.5414 44.4868C32.9033 44.6045 32.1109 44.6281 25.4279 44.6281C18.7469 44.6281 17.9544 44.6045 15.3164 44.4868ZM15.1102 0.56028C12.4459 0.678034 10.6265 1.08821 9.03563 1.68876C7.39014 2.30894 5.99531 3.14107 4.60251 4.49133C3.21172 5.84159 2.35461 7.19577 1.71582 8.79527C1.09725 10.3398 0.674756 12.1061 0.553467 14.6928C0.430156 17.2834 0.401855 18.1116 0.401855 24.7098C0.401855 31.308 0.430156 32.1363 0.553467 34.7269C0.674756 37.3135 1.09725 39.0799 1.71582 40.6244C2.35461 42.222 3.2097 43.5781 4.60251 44.9284C5.99329 46.2786 7.38812 47.1088 9.03563 47.7309C10.6286 48.3315 12.4459 48.7417 15.1102 48.8594C17.7806 48.9772 18.6316 49.0066 25.4279 49.0066C32.2261 49.0066 33.0772 48.9791 35.7455 48.8594C38.4099 48.7417 40.2292 48.3315 41.8201 47.7309C43.4656 47.1088 44.8604 46.2786 46.2532 44.9284C47.644 43.5781 48.4991 42.222 49.1399 40.6244C49.7585 39.0799 50.183 37.3135 50.3023 34.7269C50.4236 32.1343 50.4519 31.308 50.4519 24.7098C50.4519 18.1116 50.4236 17.2834 50.3023 14.6928C50.181 12.1061 49.7585 10.3398 49.1399 8.79527C48.4991 7.19773 47.644 5.84355 46.2532 4.49133C44.8624 3.14107 43.4656 2.30894 41.8221 1.68876C40.2292 1.08821 38.4099 0.676072 35.7476 0.56028C33.0792 0.442525 32.2261 0.413086 25.4299 0.413086C18.6316 0.413086 17.7806 0.440562 15.1102 0.56028Z" fill="white"/>
</g>
<defs>
<clipPath id="clip0_196_148">
<rect width="50.052" height="48.5935" fill="white" transform="translate(0.401855 0.413086)"/>
</clipPath>
</defs>
</svg>
