<svg width="30" height="30" viewBox="0 0 51 50" fill="none" xmlns="http://www.w3.org/2000/svg">
<path fill-rule="evenodd" clip-rule="evenodd" d="M4.0141 0.511719C1.97174 0.511719 0.314941 2.07268 0.314941 3.99577V45.6665C0.314941 47.5897 1.97194 49.1494 4.0141 49.1494H46.6678C48.711 49.1494 50.367 47.5896 50.367 45.6659V3.99577C50.367 2.07268 48.711 0.511719 46.6678 0.511719H4.0141ZM15.525 19.3172V41.2141H8.03522V19.3172H15.525ZM16.0187 12.5454C16.0187 14.6467 14.393 16.3281 11.7817 16.3281L11.7326 16.3279C9.21888 16.3279 7.59375 14.6465 7.59375 12.5452C7.59375 10.3962 9.26795 8.76172 11.8314 8.76172C14.393 8.76172 15.9698 10.3962 16.0187 12.5454ZM27.16 41.2141H19.6708C19.6708 41.2141 19.7689 21.3722 19.6711 19.318H27.1606V22.4174C28.1562 20.9257 29.938 18.8039 33.9108 18.8039C38.8383 18.8039 42.5328 21.9336 42.5328 28.6591V41.2141H35.0438V29.5011C35.0438 26.5572 33.9592 24.5494 31.2498 24.5494C29.1803 24.5494 27.9479 25.9035 27.4067 27.2115C27.2089 27.6783 27.16 28.3336 27.16 28.9872V41.2141Z" fill="white"/>
</svg>
