<svg width="99" height="98" viewBox="0 0 99 98" fill="none" xmlns="http://www.w3.org/2000/svg">
<g id="next-js 1" clip-path="url(#clip0_196_126)">
<path id="Vector" d="M46.2475 0.0766407C46.037 0.0957794 45.3671 0.162765 44.7642 0.210612C30.8599 1.4642 17.836 8.96659 9.5872 20.4977C4.9939 26.9092 2.0561 34.1819 0.946051 41.8853C0.553706 44.5742 0.505859 45.3685 0.505859 49.0144C0.505859 52.6604 0.553706 53.4546 0.946051 56.1436C3.60634 74.5264 16.6877 89.9714 34.4293 95.6939C37.6063 96.7178 40.9556 97.4164 44.7642 97.8374C46.2475 98.0001 52.659 98.0001 54.1422 97.8374C60.7164 97.1101 66.2858 95.4833 71.7786 92.6795C72.6207 92.2489 72.7834 92.134 72.6685 92.0384C72.592 91.9809 69.0035 87.1675 64.6973 81.3494L56.8695 70.7752L47.0609 56.2585C41.6638 48.2776 37.2236 41.7513 37.1853 41.7513C37.147 41.7417 37.1087 48.1915 37.0896 56.0671C37.0609 69.8565 37.0513 70.4116 36.8791 70.7369C36.6303 71.2058 36.4389 71.3972 36.037 71.6077C35.7307 71.7608 35.4628 71.7896 34.0178 71.7896H32.3623L31.9221 71.512C31.635 71.3302 31.4245 71.091 31.281 70.8135L31.08 70.3829L31.0992 51.1963L31.1279 32.0001L31.4245 31.6269C31.5776 31.4259 31.903 31.1675 32.1327 31.0431C32.525 30.8518 32.6781 30.8326 34.3336 30.8326C36.2858 30.8326 36.6111 30.9092 37.1183 31.4642C37.2618 31.6173 42.5728 39.6173 48.9269 49.2537C55.281 58.89 63.97 72.0479 68.2379 78.5073L75.9891 90.2489L76.3815 89.9905C79.8551 87.7321 83.5298 84.5168 86.4389 81.1675C92.6303 74.0575 96.6207 65.3876 97.9604 56.1436C98.3528 53.4546 98.4006 52.6604 98.4006 49.0144C98.4006 45.3685 98.3528 44.5742 97.9604 41.8853C95.3001 23.5025 82.2188 8.0575 64.4772 2.33501C61.348 1.32066 58.0178 0.622095 54.2858 0.201043C53.3671 0.105349 47.0417 8.56444e-05 46.2475 0.0766407ZM66.2858 29.6843C66.7451 29.914 67.1183 30.3541 67.2523 30.8135C67.3288 31.0623 67.348 36.3829 67.3288 48.3733L67.3001 65.579L64.2666 60.9283L61.2236 56.2776V43.7704C61.2236 35.6843 61.2618 31.1388 61.3193 30.9187C61.4724 30.3829 61.8073 29.9618 62.2666 29.713C62.659 29.512 62.8025 29.4929 64.3049 29.4929C65.7212 29.4929 65.97 29.512 66.2858 29.6843Z" fill="#F71364"/>
<path id="Vector_2" d="M75.5107 90.4593C75.1757 90.6698 75.0705 90.8133 75.3671 90.6506C75.5777 90.5262 75.9222 90.2679 75.8647 90.2583C75.836 90.2583 75.6734 90.354 75.5107 90.4593ZM74.8504 90.8899C74.6781 91.0238 74.6781 91.0334 74.8887 90.9282C75.0035 90.8707 75.0992 90.8038 75.0992 90.7846C75.0992 90.7081 75.0513 90.7272 74.8504 90.8899ZM74.3719 91.177C74.1997 91.3109 74.1997 91.3205 74.4102 91.2152C74.525 91.1578 74.6207 91.0908 74.6207 91.0717C74.6207 90.9951 74.5729 91.0143 74.3719 91.177ZM73.8935 91.464C73.7212 91.598 73.7212 91.6076 73.9317 91.5023C74.0466 91.4449 74.1423 91.3779 74.1423 91.3588C74.1423 91.2822 74.0944 91.3014 73.8935 91.464ZM73.1662 91.8468C72.8025 92.0382 72.8217 92.1148 73.1853 91.9329C73.348 91.8468 73.4724 91.7607 73.4724 91.7416C73.4724 91.6746 73.4628 91.6841 73.1662 91.8468Z" fill="#434343"/>
</g>
<defs>
<clipPath id="clip0_196_126">
<rect width="98" height="98" fill="white" transform="translate(0.453125)"/>
</clipPath>
</defs>
</svg>
