<svg width="99" height="108" viewBox="0 0 99 108" fill="none" xmlns="http://www.w3.org/2000/svg">
<g id="Node.js">
<path id="Vector" d="M45.0577 1.15212C47.7341 -0.380575 51.2202 -0.387498 53.8943 1.15212C67.3476 8.75749 80.8051 16.351 94.256 23.9609C96.786 25.3867 98.4783 28.2036 98.4525 31.1202V76.877C98.4713 79.9144 96.6118 82.7986 93.9427 84.192C80.5336 91.7555 67.1315 99.3282 53.7248 106.892C50.993 108.454 47.437 108.334 44.7905 106.643C40.7705 104.312 36.7435 101.992 32.7231 99.6624C31.9016 99.1724 30.9755 98.7824 30.3954 97.9855C30.9082 97.294 31.8251 97.2078 32.5701 96.9059C34.2482 96.372 35.7894 95.5151 37.331 94.6836C37.7208 94.4166 38.1967 94.519 38.5704 94.7578C42.008 96.7297 45.4152 98.759 48.8644 100.712C49.6002 101.137 50.3452 100.573 50.9741 100.222C64.1325 92.7816 77.3071 85.3694 90.4632 77.9267C90.9507 77.692 91.2201 77.1744 91.1805 76.6401C91.1898 61.5459 91.1829 46.449 91.1852 31.3548C91.2409 30.7486 90.8903 30.1913 90.3425 29.9432C76.9799 22.4144 63.6243 14.874 50.2641 7.34327C50.0326 7.18405 49.7584 7.09863 49.4775 7.09822C49.1966 7.09781 48.9222 7.18243 48.6902 7.34096C35.33 14.874 21.9767 22.4213 8.61643 29.9498C8.07053 30.1982 7.70417 30.7463 7.76914 31.3548C7.77144 46.449 7.76914 61.5459 7.76914 76.6424C7.74597 76.9031 7.80319 77.1646 7.9331 77.3917C8.06301 77.6189 8.25936 77.8007 8.49572 77.9128C12.061 79.9355 15.6308 81.944 19.1984 83.9597C21.2082 85.0421 23.6759 85.6851 25.8902 84.8559C27.8443 84.1547 29.214 82.1597 29.1767 80.084C29.1952 65.0778 29.1675 50.0694 29.1906 35.0655C29.1417 34.3994 29.7734 33.849 30.4208 33.9117C32.1338 33.9002 33.8491 33.8886 35.5622 33.9163C36.2772 33.9002 36.7693 34.6175 36.6809 35.2886C36.674 50.3898 36.6993 65.4913 36.6693 80.5924C36.674 84.6171 35.0213 88.9963 31.3003 90.9655C26.7163 93.3413 21.0506 92.8374 16.5219 90.5593C12.6015 88.6017 8.86016 86.2913 5.00928 84.194C2.33324 82.8082 0.482958 79.9124 0.501796 76.8774V31.1202C0.473732 28.1432 2.23329 25.2752 4.84206 23.8702C18.2488 16.3006 31.6532 8.72519 45.0577 1.15212Z" fill="#F71364"/>
<path id="Vector_2" d="M56.7538 32.8484C62.6011 32.4718 68.8608 32.6253 74.1226 35.5072C78.1964 37.7157 80.455 42.3507 80.5269 46.8787C80.4131 47.4895 79.7749 47.8264 79.1921 47.7845C77.4956 47.7822 75.7987 47.8076 74.1022 47.773C73.3825 47.8007 72.9643 47.1368 72.8739 46.5003C72.3865 44.3337 71.2055 42.188 69.1672 41.143C66.0383 39.5757 62.4104 39.6545 58.9986 39.6872C56.5078 39.8195 53.8295 40.0353 51.7193 41.5007C50.0993 42.6107 49.6072 44.8514 50.1854 46.656C50.7305 47.9518 52.2256 48.3699 53.4489 48.7553C60.4955 50.5991 67.9628 50.4157 74.8749 52.8422C77.7366 53.8314 80.5361 55.7545 81.5156 58.7522C82.797 62.7699 82.2353 67.5722 79.3782 70.7976C77.0612 73.4518 73.6866 74.8964 70.3209 75.681C65.8434 76.6799 61.1968 76.7052 56.6497 76.2618C52.374 75.7741 47.9246 74.6502 44.6238 71.7356C41.8013 69.2837 40.4227 65.4633 40.5596 61.776C40.5922 61.1533 41.212 60.7191 41.8082 60.7703C43.5166 60.7564 45.2251 60.7518 46.9335 60.7726C47.6159 60.7237 48.1218 61.3137 48.1568 61.9572C48.472 64.0214 49.2474 66.188 51.0465 67.4118C54.5188 69.6529 58.8755 69.4995 62.8514 69.5622C66.1452 69.416 69.8427 69.3718 72.5306 67.1937C73.9488 65.9514 74.369 63.873 73.9857 62.0849C73.5705 60.5753 71.992 59.8718 70.6365 59.4118C63.6802 57.2103 56.1295 58.0091 49.2405 55.5195C46.4437 54.5307 43.7392 52.661 42.6647 49.7864C41.1654 45.718 41.8524 40.6857 45.009 37.5691C48.0868 34.4691 52.5297 33.2757 56.7538 32.8484Z" fill="#F71364"/>
</g>
</svg>
