<svg width="171" height="202" viewBox="0 0 171 202" fill="none" xmlns="http://www.w3.org/2000/svg">
<g id="Group">
<path id="Vector" d="M82.6758 0.263901C82.1244 0.461014 64.1649 7.91153 42.7001 16.8206C12.1767 29.5141 3.43325 33.3379 2.44863 34.284C-0.190168 36.8069 -0.111398 36.058 0.0855267 64.4015C0.243067 90.8528 0.400607 93.5334 2.13355 102.797C7.13544 129.209 19.8174 153.374 38.6828 172.217C49.9863 183.57 62.5895 192.282 77.7527 199.299C81.9669 201.231 82.7546 201.507 85.0389 201.507C87.3233 201.507 88.1503 201.231 92.4433 199.26C136.751 178.998 165.936 137.172 169.717 88.4481C169.914 85.6493 170.11 73.2317 170.11 60.8536C170.11 39.8029 170.032 38.2261 169.362 36.7675C168.968 35.9003 168.102 34.7176 167.472 34.1263C166.684 33.3773 154.16 27.9767 126.984 16.6235C86.7719 -0.0908813 85.2752 -0.642776 82.6758 0.263901ZM119.895 30.7756L154.16 45.0459L154.12 67.1215C154.12 88.0145 154.081 89.5125 153.214 94.9131C152.742 98.0668 151.915 102.482 151.403 104.768C143.526 139.064 120.604 167.999 89.0168 183.413L84.9995 185.384L79.8007 182.743C47.8989 166.619 25.1738 136.975 18.0845 102.324C16.0758 92.469 15.9183 89.7884 15.9183 66.7273V45.0853L50.1832 30.815C69.0486 22.9308 84.7239 16.5052 85.0389 16.5052C85.354 16.5052 101.069 22.9308 119.895 30.7756Z" fill="#BABABA"/>
<path id="Vector_2" d="M112.608 69.9204C111.742 70.2752 104.692 77.0161 93.8217 87.9357L76.3742 105.32L67.6307 96.6477C60.502 89.5519 58.4934 87.8174 56.9968 87.2261C51.0102 84.9791 45.1419 90.5769 46.8354 96.8842C47.2687 98.461 48.6471 99.9984 59.1629 110.603C65.7008 117.186 71.6874 122.941 72.4357 123.414C74.208 124.518 77.9102 124.597 79.9188 123.572C80.7065 123.217 90.6315 113.52 102.014 102.088C121.155 82.8898 122.77 81.1553 123.242 79.4602C124.975 72.9558 118.674 67.2792 112.608 69.9204Z" fill="#BABABA"/>
</g>
</svg>
