<svg width="76" height="75" viewBox="0 0 76 75" fill="none" xmlns="http://www.w3.org/2000/svg">
<g id="Protoshop">
<path id="Vector" d="M4.07082 0.164757C3.17591 0.39949 2.20764 1.05967 1.62082 1.83722C0.623208 3.14291 0.696562 0.458176 0.725903 37.8098L0.769915 71.6257L1.1807 72.462C1.63549 73.3862 2.44238 74.1638 3.46932 74.6626L4.14418 75H38.2536H72.3629L73.0378 74.6626C74.0647 74.1638 74.8716 73.3862 75.3264 72.462L75.7372 71.6257V37.5164V3.40698L75.4291 2.73213C74.9743 1.76387 74.1968 0.956978 73.2138 0.458176L72.3629 0.0327225L38.547 0.00337982C12.1837 -0.0112915 4.5843 0.0180511 4.07082 0.164757ZM29.0844 14.4834C35.4368 15.0995 39.2805 17.3001 41.4371 21.5987C42.4787 23.6525 42.9042 26.1319 42.6548 28.758C42.0826 34.7289 38.7377 38.6607 32.6787 40.4358C30.4047 41.1107 29.099 41.2574 25.5341 41.2574H22.2625V48.6221V56.0014H17.6412H13.02V35.6092V15.2169L13.3574 15.1582C14.355 14.9382 18.1254 14.5567 20.6487 14.4394C22.8053 14.322 27.6466 14.3513 29.0844 14.4834ZM60.2156 25.6918C62.5482 26.1172 64.7048 26.8801 64.5875 27.2469C64.5581 27.3642 64.1914 28.7873 63.7659 30.4011C63.3551 32.0149 63.003 33.3499 62.9737 33.3792C62.959 33.4086 62.3575 33.1885 61.668 32.8951C59.3794 31.9562 56.4306 31.5454 54.9048 31.9562C53.115 32.4403 52.3521 34.3181 53.4671 35.4918C54.0832 36.152 54.8168 36.5334 57.3988 37.5164C60.8024 38.8367 61.9027 39.4529 63.3405 40.8026C65.0863 42.4604 65.8638 44.3236 65.8638 46.9056C65.8785 51.3068 63.2231 54.5344 58.4551 55.9134C54.6994 56.9991 48.6257 56.7203 44.9141 55.2826C43.0069 54.549 43.0949 54.9452 44.0191 51.2628C44.4593 49.5023 44.8554 48.0206 44.8994 47.9912C44.9434 47.9472 45.2368 48.0499 45.5596 48.2113C46.4985 48.6954 48.0389 49.2383 49.6234 49.649C51.6919 50.1918 54.2446 50.2212 55.3889 49.7077C56.2545 49.3263 56.7093 48.7835 56.8413 48.0206C56.9734 47.2137 56.768 46.5388 56.2545 46.0254C55.6383 45.4092 55.1102 45.1598 52.4401 44.1328C47.4374 42.2257 45.2221 40.3331 44.2392 37.1643C43.9898 36.3134 43.9458 35.9173 44.0191 34.6702C44.1365 32.3669 44.8847 30.6211 46.4545 28.9487C48.215 27.0855 50.3275 26.1026 53.9512 25.4277C54.6994 25.2957 59.0419 25.4717 60.2156 25.6918Z" fill="#F71364"/>
<path id="Vector_2" d="M23.7586 21.5272C23.1718 21.6006 22.5996 21.6886 22.4823 21.7326C22.2915 21.806 22.2622 22.6422 22.2622 27.8796V33.9533L22.8197 34.056C23.9053 34.232 27.0595 34.144 28.0865 33.9093C30.3751 33.3811 32.0182 32.1635 32.8691 30.3736C33.2652 29.5081 33.3386 29.1853 33.3826 27.909C33.4266 26.838 33.3826 26.2218 33.1919 25.6057C32.253 22.3781 29.0107 20.9844 23.7586 21.5272Z" fill="#F71364"/>
</g>
</svg>
