<svg width="99" height="98" viewBox="0 0 99 98" fill="none" xmlns="http://www.w3.org/2000/svg">
<g id="Python">
<path id="Vector" d="M36.6049 47.5153H60.1386C60.1386 47.5153 73.3626 47.7285 73.3626 34.6689V13.0705C73.3626 13.0705 75.3691 0 49.3886 0C24.5173 0 26.067 10.8402 26.067 10.8402L26.0996 22.074H49.8236V25.4468H16.6764C16.6764 25.4468 0.760742 23.6319 0.760742 48.8546C0.760742 74.0774 14.6536 73.1808 14.6536 73.1808H22.9404V61.4769C22.9404 61.4769 22.4891 47.5153 36.6049 47.5153ZM36.3004 16.1373C35.1684 16.1373 34.0827 15.6852 33.2822 14.8804C32.4817 14.0756 32.032 12.9841 32.032 11.846C32.032 10.7079 32.4817 9.61643 33.2822 8.81166C34.0827 8.0069 35.1684 7.55479 36.3004 7.55479C37.4325 7.55479 38.5182 8.0069 39.3187 8.81166C40.1192 9.61643 40.5689 10.7079 40.5689 11.846C40.5689 12.9841 40.1192 14.0756 39.3187 14.8804C38.5182 15.6852 37.4325 16.1373 36.3004 16.1373Z" fill="#F71364"/>
<path id="Vector_2" d="M84.8191 24.7715H76.5323V36.4754C76.5323 36.4754 76.9837 50.437 62.8678 50.437H39.3342C39.3342 50.437 26.1101 50.2183 26.1101 63.2834V84.8818C26.1101 84.8818 24.1037 97.9523 50.0842 97.9523C74.95 97.9523 73.4003 87.1121 73.4003 87.1121L73.3677 75.8838H49.6438V72.5109H82.7964C82.7964 72.5109 98.712 74.3258 98.712 49.1031C98.712 23.8804 84.8191 24.7715 84.8191 24.7715ZM63.1723 81.8205C64.3044 81.8205 65.3901 82.2726 66.1906 83.0774C66.9911 83.8821 67.4408 84.9736 67.4408 86.1117C67.4408 87.2498 66.9911 88.3413 66.1906 89.1461C65.3901 89.9509 64.3044 90.403 63.1723 90.403C62.0403 90.403 60.9546 89.9509 60.1541 89.1461C59.3536 88.3413 58.9039 87.2498 58.9039 86.1117C58.9039 84.9736 59.3536 83.8821 60.1541 83.0774C60.9546 82.2726 62.0403 81.8205 63.1723 81.8205Z" fill="#F71364"/>
</g>
</svg>
