<svg width="99" height="88" viewBox="0 0 99 88" fill="none" xmlns="http://www.w3.org/2000/svg">
<g id="React">
<path id="Vector" d="M49.7876 52.3105C54.6111 52.3105 58.5214 48.4002 58.5214 43.5766C58.5214 38.7531 54.6111 34.8428 49.7876 34.8428C44.964 34.8428 41.0537 38.7531 41.0537 43.5766C41.0537 48.4002 44.964 52.3105 49.7876 52.3105Z" fill="#F71364"/>
<path id="Vector_2" d="M25.3324 60.9419L23.3997 60.4477C9.04386 56.8221 0.809082 50.657 0.809082 43.5574C0.809082 36.4529 9.04875 30.2927 23.3997 26.667L25.3324 26.1777L25.8755 28.0909C27.3265 33.0997 29.1855 37.9813 31.4339 42.6864L31.8498 43.5574L31.4339 44.4283C29.1831 49.1402 27.3189 54.0233 25.8755 59.0337L25.3324 60.9419ZM22.5092 31.1196C11.6029 34.1923 4.90445 38.8798 4.90445 43.5574C4.90445 48.2252 11.598 52.9175 22.5092 55.9854C23.8449 51.7383 25.4596 47.5843 27.3287 43.5574C25.4461 39.5238 23.8359 35.3686 22.5092 31.1196ZM74.2371 60.9419L73.6989 59.0239C72.2441 54.0141 70.3835 49.1311 68.1356 44.4234L67.7197 43.5574L68.1356 42.6816C70.3864 37.9795 72.2408 33.0914 73.6989 28.0811L74.2371 26.1729L76.1698 26.6621C90.5305 30.2878 98.7604 36.448 98.7604 43.5574C98.7604 50.6619 90.5256 56.8221 76.1698 60.4477L74.2371 60.9419ZM72.231 43.5574C74.1882 47.7947 75.8175 51.9634 77.0603 55.9854C87.9715 52.9175 94.6699 48.2252 94.6699 43.5574C94.6699 38.8798 87.9764 34.1972 77.0603 31.1196C75.7259 35.3672 74.1126 39.5222 72.231 43.5574Z" fill="#F71364"/>
<path id="Vector_3" d="M22.48 31.1L21.9418 29.1918C17.9002 14.9632 19.1235 4.77124 25.3032 1.21898C31.346 -2.27946 41.0682 1.85506 51.2504 12.3014L52.64 13.7302L51.2504 15.154C47.6339 18.9151 44.3285 22.9634 41.3667 27.2591L40.8138 28.0517L39.8548 28.13C34.6467 28.5391 29.4806 29.372 24.4078 30.6205L22.48 31.1ZM30.2206 4.04709C29.1246 4.04709 28.1558 4.28684 27.3387 4.75656C23.2873 7.09048 22.573 15.2176 25.3619 26.1875C29.7215 25.2236 34.1203 24.5337 38.5533 24.1472C41.1197 20.5071 43.9194 17.0373 46.9348 13.7595C40.5593 7.5602 34.5411 4.04709 30.2206 4.04709ZM69.3493 87.1484C63.5365 87.1484 56.0699 82.7644 48.3195 74.8085L46.9348 73.3846L48.3195 71.9657C51.9366 68.1985 55.2435 64.1454 58.2081 59.8459L58.7561 59.0631L59.7053 58.9701C64.9153 58.5683 70.0833 57.7386 75.1572 56.4894L77.0899 56.0001L77.633 57.9132C81.655 72.132 80.4366 82.3387 74.2667 85.8909C72.7686 86.7401 71.0711 87.1742 69.3493 87.1484ZM52.64 73.3504C59.0105 79.5497 65.0337 83.0677 69.3493 83.0677C70.4502 83.0677 71.419 82.8231 72.2312 82.3582C76.2874 80.0194 77.0067 71.8776 74.2079 60.9077C69.8532 61.8765 65.4496 62.5713 61.0069 62.9578C58.4513 66.6036 55.6562 70.0755 52.64 73.3504Z" fill="#F71364"/>
<path id="Vector_4" d="M77.0898 31.0998L75.1571 30.6154C70.0835 29.363 64.9154 28.53 59.7052 28.1249L58.756 28.0418L58.208 27.2491C55.2475 22.9511 51.9403 18.9026 48.3194 15.144L46.9347 13.7202L48.3194 12.3013C58.4967 1.85976 68.214 -2.27475 74.2666 1.21879C80.4414 4.77594 81.6695 14.9679 77.6329 29.1916L77.0898 31.0998ZM61.0067 24.147C65.6746 24.5629 70.0978 25.2626 74.2078 26.1874C77.0017 15.2174 76.2873 7.09029 72.2311 4.75148C68.1993 2.41756 60.6104 5.98939 52.6399 13.7593C55.6539 17.0376 58.4526 20.5018 61.0067 24.147ZM30.2205 87.1482C28.4988 87.1728 26.8016 86.7388 25.3031 85.8907C19.1234 82.3385 17.9001 72.1367 21.9368 57.913L22.4652 55.9999L24.3979 56.4892C29.1147 57.6782 34.311 58.5149 39.8498 58.9699L40.799 59.0629L41.3519 59.8457C44.3072 64.1417 47.6148 68.198 51.2356 71.9655L52.6252 73.3844L51.2356 74.8083C43.4901 82.7691 36.0235 87.1482 30.2205 87.1482ZM25.3618 60.9124C22.5729 71.8823 23.2872 80.0241 27.3386 82.3629C31.3752 84.6626 38.9397 81.1152 46.9347 73.3502C43.9204 70.0714 41.1208 66.6017 38.5532 62.9625C34.1157 62.5701 29.7091 61.8852 25.3618 60.9124Z" fill="#F71364"/>
<path id="Vector_5" d="M49.7869 63.4825C46.4254 63.4825 42.9759 63.3406 39.5117 63.0519L38.5527 62.9687L37.9998 62.176C36.0463 59.367 34.2083 56.4794 32.4904 53.5205C30.7852 50.5536 29.2002 47.5191 27.7394 44.4245L27.3284 43.5585L27.7394 42.6827C29.2024 39.5903 30.7828 36.5567 32.4904 33.5916C34.1882 30.6754 36.0427 27.7593 37.9998 24.9312L38.5527 24.1483L39.5117 24.0602C46.3466 23.4877 53.2173 23.4877 60.0522 24.0602L61.0014 24.1532L61.5543 24.936C65.4677 30.5568 68.9047 36.4946 71.8295 42.6876L72.2356 43.5634L71.8295 44.4294C68.9127 50.6266 65.4754 56.5651 61.5543 62.1809L61.0014 62.9736L60.0522 63.0568C56.5978 63.3357 53.1434 63.4825 49.7869 63.4825ZM40.8133 59.0593C46.856 59.5143 52.7177 59.5143 58.7556 59.0593C62.1263 54.1233 65.1226 48.9419 67.7194 43.5585C65.1317 38.1702 62.135 32.9881 58.7556 28.0577C52.7836 27.5978 46.7852 27.5978 40.8133 28.0577C37.431 32.9863 34.4341 38.1687 31.8494 43.5585C34.4519 48.939 37.4479 54.12 40.8133 59.0593Z" fill="#F71364"/>
</g>
</svg>
