<svg width="257" height="198" viewBox="0 0 257 198" fill="none" xmlns="http://www.w3.org/2000/svg">
<path d="M39.1598 1.62558C36.1977 3.03259 33.7878 5.44463 32.5327 8.2084C31.7294 10.0174 31.629 12.2787 31.4784 28.6101C31.378 38.7105 31.4784 47.7556 31.7294 48.7103L32.1813 50.4189L36.4989 50.5696C40.6157 50.7204 40.8165 50.6701 41.1178 49.5646C41.2684 48.9113 41.419 40.1175 41.419 30.0171C41.419 12.8315 41.4692 11.5752 42.3227 10.8214C43.1762 10.0174 50.9579 9.96718 144.239 9.96718C244.598 9.96718 245.251 9.96718 246.255 10.9722C247.259 11.9772 247.259 12.6304 247.259 74.0366V136.096H175.968C97.3473 136.096 102.067 135.895 100.51 139.262C99.3555 141.674 99.2551 158.809 100.36 161.473C101.866 164.99 96.2428 164.789 175.818 164.638L247.51 164.488L249.569 163.382C252.079 162.025 254.439 159.613 255.643 157.251C256.497 155.543 256.547 151.573 256.698 83.333C256.848 2.88185 257.049 8.40941 253.284 4.48987C252.23 3.38435 250.573 2.07784 249.669 1.57533C248.113 0.721069 243.193 0.670822 144.841 0.570328L41.67 0.419571L39.1598 1.62558ZM147.803 143.935C150.665 146.297 150.313 150.819 147.151 152.729C144.841 154.136 142.682 153.935 140.574 152.126C139.017 150.719 138.817 150.267 138.817 148.156C138.817 146.096 139.068 145.493 140.373 144.186C142.431 142.126 145.544 142.026 147.803 143.935Z" fill="#BABABA"/>
<path d="M4.46824 62.9312C3.61476 63.3332 2.25922 64.489 1.45594 65.5442L0 67.4035V129.815V192.226L1.45594 194.085C4.0666 197.552 2.20902 197.402 44.0297 197.402C80.83 197.402 81.8341 197.402 83.792 196.397C86.4027 195.09 87.5072 193.583 88.1097 190.367C88.7623 186.849 88.7623 72.8305 88.1097 69.313C87.5072 66.0467 86.4027 64.5392 83.792 63.2327C81.8341 62.2277 80.8802 62.2277 43.8791 62.2277C13.1035 62.2779 5.72336 62.3784 4.46824 62.9312ZM53.5185 70.7703C54.0205 71.0718 54.4724 71.6245 54.4724 72.0265C54.4724 72.4285 54.0205 72.9813 53.5185 73.2828C52.4642 73.8355 36.0471 73.9863 34.6916 73.4838C33.7377 73.132 33.6373 70.9713 34.541 70.6195C35.7459 70.117 52.5144 70.2678 53.5185 70.7703ZM80.5789 79.3129C81.583 80.3179 81.583 80.7701 81.4826 130.367C81.332 174.136 81.2316 180.417 80.5789 180.819C79.374 181.573 8.1332 181.472 7.38013 180.718C6.92828 180.266 6.77767 168.256 6.77767 129.714C6.77767 82.2776 6.82787 79.3129 7.68136 78.8606C8.23361 78.5089 20.8853 78.3581 44.0799 78.3078C79.0226 78.3078 79.5748 78.3078 80.5789 79.3129ZM46.6906 184.588C48.0963 185.945 48.3474 188.558 47.2428 189.965C45.6865 192.025 42.1721 192.025 40.6158 189.965C38.708 187.502 40.8166 183.331 43.9293 183.331C44.8832 183.331 45.9375 183.784 46.6906 184.588Z" fill="#BABABA"/>
<path d="M125.261 174.789C124.709 175.141 124.458 176.548 124.257 179.915L124.006 184.588L112.459 184.839C106.133 184.99 100.611 185.291 100.309 185.492C99.6065 185.945 99.3555 194.035 99.9579 195.593C100.259 196.296 105.029 196.397 149.058 196.397C186.361 196.397 198.008 196.246 198.46 195.794C199.163 195.09 199.263 186.95 198.56 185.844C198.159 185.191 195.649 185.04 182.896 184.839L167.684 184.588L167.433 179.965C167.283 177.452 166.982 175.191 166.781 174.94C166.178 174.337 126.165 174.186 125.261 174.789Z" fill="#BABABA"/>
</svg>
