<svg width="296" height="141" viewBox="0 0 296 141" fill="none" xmlns="http://www.w3.org/2000/svg">
<path d="M193.196 0.723572C183.374 2.92104 175.228 7.14249 168.237 13.7927C160.379 21.1947 155.7 29.1172 152.811 39.6419C151.078 45.9452 151.078 58.3204 152.869 64.855C157.953 83.9383 171.992 97.7592 191.636 103.137C194.525 103.947 197.414 104.178 204.058 104.12C211.742 104.062 213.302 103.889 217.924 102.501C223.471 100.824 231.386 96.8918 234.968 94.0582L237.221 92.2655L246.234 100.766C252.936 107.07 255.363 109.73 255.594 111.002C255.767 111.985 256.865 113.662 258.02 114.818C262.816 119.56 283.904 138.991 285.233 139.916C288.295 141.998 293.032 140.668 294.708 137.198C297.077 132.225 297.25 132.456 268.304 105.682C266.629 104.12 264.78 103.022 263.567 102.79C262.065 102.501 259.523 100.535 252.647 94.1738L243.692 85.8466L245.887 82.8974C252.589 73.8183 255.825 63.9876 255.825 52.4219C255.883 45.4826 255.189 41.0298 253.167 35.0157C247.563 18.6503 233.986 6.04376 216.537 1.18619C211.742 -0.14386 198.165 -0.432999 193.196 0.723572ZM213.244 14.8336C219.253 16.3372 225.204 19.6334 229.653 23.797C237.972 31.546 242.017 40.6828 242.074 51.8437C242.132 58.783 241.265 62.3105 238.03 69.1343C233.119 79.3698 223.008 87.4079 212.089 89.7211C194.467 93.4799 176.788 84.9213 169.104 68.9029C162.691 55.5446 164.135 40.625 173.032 28.7124C177.943 22.1778 186.552 16.4528 194.236 14.6023C199.378 13.3879 207.929 13.4458 213.244 14.8336Z" fill="#BABABA"/>
<path d="M30.1533 5.58114C20.8514 6.50639 13.745 9.57128 8.48738 14.8336C-1.21893 24.5488 -1.33448 39.5841 8.14073 49.0101C12.3006 53.1159 15.9404 55.2555 25.8201 59.3613C35.3531 63.3515 37.433 64.5658 39.4551 67.2259C41.3617 69.7125 41.5928 73.8762 39.9173 76.7676C36.3353 83.013 20.9669 83.6491 7.85185 78.0976C5.88747 77.288 4.21198 76.7676 4.09643 76.8832C3.9231 76.9989 3.05647 80.3529 2.13206 84.2852C1.14987 88.2176 0.225459 91.9186 0.0521319 92.439C-0.178971 93.1908 0.34101 93.7112 1.95873 94.4052C12.4739 98.9158 28.1889 100.13 39.2818 97.2966C46.0416 95.5617 49.797 93.5956 54.2457 89.5476C59.8499 84.3431 62.681 76.7098 62.0454 68.6138C61.5832 63.4093 60.8321 61.0962 58.0011 56.9325C54.0724 51.0919 49.797 48.2583 36.7397 42.8803C32.6954 41.2611 28.1311 39.0636 26.5134 38.0227C18.3092 32.7604 21.3714 23.7392 31.771 22.4091C36.5086 21.8308 43.7883 22.6983 49.2192 24.5488L54.1302 26.168L54.7657 23.8548C55.1123 22.5248 56.0945 18.8816 56.9612 15.7011C58.1167 11.7109 58.4056 9.8026 57.9434 9.51345C57.5967 9.33997 55.6323 8.5882 53.5524 7.9521C47.1971 5.87029 37.2019 4.82938 30.1533 5.58114Z" fill="#BABABA"/>
<path d="M76.085 52.1327V97.5278H105.262H134.496L134.323 89.2584L134.15 81.0468L115.546 80.8733L96.8842 80.7577V70.0595V59.3613L113.524 59.2456L130.105 59.0721L130.279 50.8027L130.452 42.5911H113.639H96.8842V33.0495V23.5078H114.506H132.127V15.1227V6.73765H104.106H76.085V52.1327Z" fill="#BABABA"/>
</svg>
