<svg width="99" height="59" viewBox="0 0 99 59" fill="none" xmlns="http://www.w3.org/2000/svg">
<g id="tailwindcss 1" clip-path="url(#clip0_196_132)">
<path id="Vector" d="M49.4531 0.0786133C36.3866 0.0786133 28.2197 6.61686 24.9531 19.693C29.8531 13.1547 35.5697 10.7029 42.1031 12.3376C45.8306 13.27 48.4949 15.9766 51.4441 18.972C56.2484 23.8522 61.8084 29.5002 73.9531 29.5002C87.0197 29.5002 95.1866 22.9619 98.4531 9.88579C93.5531 16.424 87.8366 18.8758 81.3031 17.2412C77.5757 16.3087 74.9113 13.6022 71.9621 10.6068C67.1578 5.72655 61.5979 0.0786133 49.4531 0.0786133ZM24.9531 29.5002C11.8866 29.5002 3.71966 36.0384 0.453125 49.1145C5.35313 42.5763 11.0697 40.1245 17.6031 41.7591C21.3306 42.6916 23.9949 45.3981 26.9441 48.3935C31.7484 53.2738 37.3084 58.9217 49.4531 58.9217C62.5197 58.9217 70.6866 52.3834 73.9531 39.3073C69.0531 45.8456 63.3366 48.2974 56.8031 46.6627C53.0757 45.7303 50.4113 43.0237 47.4621 40.0283C42.6578 35.1481 37.0979 29.5002 24.9531 29.5002Z" fill="#F71364"/>
</g>
<defs>
<clipPath id="clip0_196_132">
<rect width="98" height="59" fill="white" transform="translate(0.453125)"/>
</clipPath>
</defs>
</svg>
